<svg xmlns="http://www.w3.org/2000/svg" data-name="Layer 1" viewBox="0 0 100 125" x="0px" y="0px"><title>09</title><path d="M18,95.75H82a12,12,0,0,0,12-12v-58a12,12,0,0,0-12-12H74V8.25a4,4,0,0,0-8,0v5.5H34V8.25a4,4,0,1,0-8,0v5.5H18a12,12,0,0,0-12,12v58A12,12,0,0,0,18,95.75Zm64-8H18a4,4,0,0,1-4-4v-33H86v33A4,4,0,0,1,82,87.75Zm-64-66h8v4.5a4,4,0,1,0,8,0v-4.5H66v4.5a4,4,0,0,0,8,0v-4.5h8a4,4,0,0,1,4,4v17H14v-17A4,4,0,0,1,18,21.75Z"/><text x="0" y="115" fill="#000000" font-size="5px" font-weight="bold" font-family="'Helvetica Neue', Helvetica, Arial-Unicode, Arial, Sans-serif">Created by Karan</text><text x="0" y="120" fill="#000000" font-size="5px" font-weight="bold" font-family="'Helvetica Neue', Helvetica, Arial-Unicode, Arial, Sans-serif">from the Noun Project</text></svg>