<?xml version="1.0" encoding="UTF-8"?>
<svg width="82px" height="82px" viewBox="0 0 82 82" version="1.1" xmlns="http://www.w3.org/2000/svg" xmlns:xlink="http://www.w3.org/1999/xlink">
    <!-- Generator: Sketch 47.1 (45422) - http://www.bohemiancoding.com/sketch -->
    <title>noun_url_1092854</title>
    <desc>Created with Sketch.</desc>
    <defs></defs>
    <g id="Page-1" stroke="none" stroke-width="1" fill="none" fill-rule="evenodd">
        <g id="noun_url_1092854" fill-rule="nonzero" fill="#000000">
            <g id="Group">
                <path d="M25.5,8.6 C25.7,8.4 25.8,8.4 26,8.4 C26.2,8.4 26.3,8.4 26.5,8.6 L38.5,20.6 L44.2,14.9 L32.2,2.9 C30.6,1.3 28.4,0.4 26.1,0.4 C23.8,0.4 21.6,1.3 20,2.9 L3,19.8 C1.4,21.4 0.5,23.6 0.5,25.9 C0.5,28.2 1.4,30.4 3,32 L29.1,58.1 C30.5,59.5 32.4,60.3 34.4,60.3 C36.4,60.3 38.3,59.5 39.7,58.1 L53.1,44.7 L47.4,39 L34.4,52 L8.6,26.4 C8.4,26.2 8.4,26.1 8.4,25.9 C8.4,25.8 8.4,25.6 8.6,25.4 L25.5,8.6 Z" id="Shape"></path>
                <path d="M81.6,55.6 C81.6,53.6 80.8,51.7 79.4,50.3 L52.4,23.3 C51,21.9 49.1,21.1 47.1,21.1 C45.1,21.1 43.2,21.9 41.8,23.3 L28.5,36.7 L34.2,42.4 L47.2,29.4 L73.4,55.6 L55.6,73.3 L43.9,61.7 L38.2,67.4 L50.2,79.4 C51.7,80.9 53.6,81.6 55.5,81.6 C57.4,81.6 59.3,80.9 60.8,79.4 L79.3,60.9 C80.8,59.4 81.6,57.6 81.6,55.6 Z" id="Shape"></path>
            </g>
        </g>
    </g>
</svg>