<svg xmlns="http://www.w3.org/2000/svg" xmlns:xlink="http://www.w3.org/1999/xlink" version="1.1" x="0px" y="0px" viewBox="0 0 500 625" enable-background="new 0 0 500 500" xml:space="preserve"><g><g><path d="M338.2,91.9l-3.8-3.8c-24-23.6-55.2-35.5-86.5-35.5c-31.5,0-63,12-87.1,36.1    c-37.8,37.8-46.9,95.7-22.5,143.3l110.2,215l111.8-209.4C386.1,189.5,377.1,130.2,338.2,91.9z M250,234.8    c-34,0-61.5-27.5-61.5-61.5c0-33.9,27.5-61.5,61.5-61.5s61.5,27.5,61.5,61.5C311.5,207.3,284,234.8,250,234.8z"/><g><path d="M341.7,88.4c-20.8-20.5-45.8-35-75-39.3c-31.2-4.5-63.5,2.5-89.7,20c-50.5,33.9-70.8,100.4-47.1,156.5     c8.3,19.8,19.4,38.6,29.1,57.7c17.2,33.6,34.4,67.2,51.7,100.8c7.2,14.1,14.4,28.2,21.7,42.3c3.8,7.4,7.3,15,11.4,22.2     c0.2,0.3,0.3,0.7,0.5,1c1.7,3.3,6.9,3.2,8.6,0c19.3-36.2,38.7-72.5,58-108.7c12.9-24.2,25.9-48.5,38.8-72.7     c7.1-13.2,15-26.4,20.7-40.2C390,180.3,378.1,124.6,341.7,88.4c-4.6-4.6-11.6,2.5-7.1,7.1c32.1,32,43.5,80,28.7,122.9     c-5,14.6-13.5,28.3-20.7,41.8c-25.6,47.9-51.1,95.7-76.7,143.6c-7.3,13.6-14.5,27.2-21.8,40.8c2.9,0,5.8,0,8.6,0     c-8.6-16.8-17.2-33.5-25.8-50.3c-16.7-32.5-33.4-65.1-50-97.6c-11.1-21.7-22.2-43.3-33.3-65c-22-42.9-17.4-95.6,14.4-132.5     c20.3-23.5,49.3-38.6,80.4-41c31-2.4,62.5,7.5,86.1,27.9c3.5,3,6.8,6.3,10.1,9.5C339.2,100,346.3,92.9,341.7,88.4z"/><path d="M250,229.8c-23.5-0.3-45.2-14.9-53.1-37.2c-7.9-22.3-1.1-47.4,17-62.7c18.2-15.3,45.1-17.2,65.4-4.9     c20,12.1,30.8,36.2,26.2,59.2C300.1,210.6,276.8,229.5,250,229.8c-6.4,0.1-6.4,10.1,0,10c27.9-0.3,52.9-17.7,62.6-44     c9.5-26,1.1-56.4-20.4-73.8c-21.5-17.6-52.6-20.1-76.5-5.6c-23.8,14.4-36.1,42.6-30.9,69.9c5.9,31,34,53.2,65.2,53.6     C256.4,239.9,256.4,229.9,250,229.8z"/></g></g></g><text x="0" y="515" fill="#000000" font-size="5px" font-weight="bold" font-family="'Helvetica Neue', Helvetica, Arial-Unicode, Arial, Sans-serif">Created by Neha Tyagi</text><text x="0" y="520" fill="#000000" font-size="5px" font-weight="bold" font-family="'Helvetica Neue', Helvetica, Arial-Unicode, Arial, Sans-serif">from the Noun Project</text></svg>