<?xml version="1.0" encoding="UTF-8"?>
<svg width="260px" height="406px" viewBox="0 0 260 406" version="1.1" xmlns="http://www.w3.org/2000/svg" xmlns:xlink="http://www.w3.org/1999/xlink">
    <!-- Generator: Sketch 47.1 (45422) - http://www.bohemiancoding.com/sketch -->
    <title>icon-location</title>
    <desc>Created with Sketch.</desc>
    <defs></defs>
    <g id="Page-1" stroke="none" stroke-width="1" fill="none" fill-rule="evenodd">
        <g id="icon-location" fill-rule="nonzero" fill="#000000">
            <g id="Group">
                <path d="M218.2,44.9 L214.4,41.1 C190.4,17.5 159.2,5.6 127.9,5.6 C96.4,5.6 64.9,17.6 40.8,41.7 C3,79.5 -6.1,137.4 18.3,185 L128.5,400 L240.3,190.6 C266.1,142.5 257.1,83.2 218.2,44.9 Z M130,187.8 C96,187.8 68.5,160.3 68.5,126.3 C68.5,92.4 96,64.8 130,64.8 C164,64.8 191.5,92.3 191.5,126.3 C191.5,160.3 164,187.8 130,187.8 Z" id="Shape"></path>
                <g id="Shape">
                    <path d="M221.7,41.4 C200.9,20.9 175.9,6.4 146.7,2.1 C115.5,-2.4 83.2,4.6 57,22.1 C6.5,56 -13.8,122.5 9.9,178.6 C18.2,198.4 29.3,217.2 39,236.3 C56.2,269.9 73.4,303.5 90.7,337.1 C97.9,351.2 105.1,365.3 112.4,379.4 C116.2,386.8 119.7,394.4 123.8,401.6 C124,401.9 124.1,402.3 124.3,402.6 C126,405.9 131.2,405.8 132.9,402.6 C152.2,366.4 171.6,330.1 190.9,293.9 C203.8,269.7 216.8,245.4 229.7,221.2 C236.8,208 244.7,194.8 250.4,181 C270,133.3 258.1,77.6 221.7,41.4 C217.1,36.8 210.1,43.9 214.6,48.5 C246.7,80.5 258.1,128.5 243.3,171.4 C238.3,186 229.8,199.7 222.6,213.2 C197,261.1 171.5,308.9 145.9,356.8 C138.6,370.4 131.4,384 124.1,397.6 C127,397.6 129.9,397.6 132.7,397.6 C124.1,380.8 115.5,364.1 106.9,347.3 C90.2,314.8 73.5,282.2 56.9,249.7 C45.8,228 34.7,206.4 23.6,184.7 C1.6,141.8 6.2,89.1 38,52.2 C58.3,28.7 87.3,13.6 118.4,11.2 C149.4,8.8 180.9,18.7 204.5,39.1 C208,42.1 211.3,45.4 214.6,48.6 C219.2,53 226.3,45.9 221.7,41.4 Z"></path>
                    <path d="M130,182.8 C106.5,182.5 84.8,167.9 76.9,145.6 C69,123.3 75.8,98.2 93.9,82.9 C112.1,67.6 139,65.7 159.3,78 C179.3,90.1 190.1,114.2 185.5,137.2 C180.1,163.6 156.8,182.5 130,182.8 C123.6,182.9 123.6,192.9 130,192.8 C157.9,192.5 182.9,175.1 192.6,148.8 C202.1,122.8 193.7,92.4 172.2,75 C150.7,57.4 119.6,54.9 95.7,69.4 C71.9,83.8 59.6,112 64.8,139.3 C70.7,170.3 98.8,192.5 130,192.9 C136.4,192.9 136.4,182.9 130,182.8 Z"></path>
                </g>
            </g>
        </g>
    </g>
</svg>