<?xml version="1.0" encoding="UTF-8"?>
<svg width="300px" height="513px" viewBox="0 0 300 513" version="1.1" xmlns="http://www.w3.org/2000/svg" xmlns:xlink="http://www.w3.org/1999/xlink">
    <!-- Generator: Sketch 47.1 (45422) - http://www.bohemiancoding.com/sketch -->
    <title>Slice 1</title>
    <desc>Created with Sketch.</desc>
    <defs></defs>
    <g id="Page-1" stroke="none" stroke-width="1" fill="none" fill-rule="evenodd">
        <g id="logo-park" fill-rule="nonzero" fill="#FFFFFF">
            <g id="Group">
                <path d="M299.793,149.062 C299.793,66.096 232.365,0 149.356,0 C67.63,0 0.207,66.096 0.207,149.062 C0.207,228.926 62.724,292.968 140.29,297.668 L140.29,419.98 L106.544,419.98 C100.07,419.98 96.18,423.862 96.18,430.345 C96.18,431.629 96.18,434.241 97.476,435.515 L141.575,506.812 C144.17,512.011 150.656,513.291 154.535,510.706 C155.834,509.393 157.13,508.116 158.428,506.812 L180.497,470.517 L202.525,434.242 C205.122,430.346 203.821,423.862 198.637,421.255 C197.335,419.981 194.754,419.981 193.457,419.981 L159.724,419.981 L159.724,297.611 C237.889,292.358 299.793,228.533 299.793,149.062 Z M150,280.505 C76.794,280.505 17.452,221.16 17.452,147.957 C17.452,74.754 76.794,15.408 150,15.408 C223.206,15.408 282.548,74.753 282.548,147.956 C282.548,221.159 223.206,280.505 150,280.505 Z" id="Shape"></path>
                <g transform="translate(68.000000, 64.000000)" id="Shape">
                    <path d="M72.776,167.171 C72.776,171.945 76.522,176.082 81.277,176.54 C86.02,176.998 90.481,173.697 91.422,169.023 C91.606,168.094 91.602,167.166 91.602,166.226 C91.602,165.019 91.602,163.815 91.602,162.609 C91.602,159.316 91.602,156.022 91.602,152.728 C91.602,151.586 91.602,150.443 91.602,149.298 C91.602,149.16 91.683,148.72 91.602,148.599 C91.564,148.533 91.498,148.557 91.386,148.557 C88.957,148.557 86.529,148.557 84.102,148.557 C80.988,148.557 77.873,148.557 74.759,148.557 C74.311,148.557 73.859,148.557 73.41,148.557 C73.307,148.557 72.879,148.488 72.796,148.557 C72.748,148.595 72.776,148.769 72.776,148.842 C72.776,149.208 72.776,149.576 72.776,149.942 C72.776,152.94 72.776,155.932 72.776,158.925 C72.776,161.529 72.776,164.134 72.776,166.735 C72.776,166.88 72.776,167.027 72.776,167.171 Z"></path>
                    <path d="M41.804,95.211 C42.739,95.345 43.655,95.849 44.532,96.183 C45.587,96.586 46.649,96.972 47.718,97.346 C49.864,98.097 52.034,98.787 54.223,99.411 C58.437,100.612 62.72,101.568 67.046,102.249 C75.49,103.579 84.091,103.84 92.596,102.956 C101.178,102.065 109.624,100.011 117.697,96.981 C118.744,96.589 119.783,96.178 120.811,95.757 C121.332,95.544 121.838,95.276 122.399,95.211 C122.782,95.163 123.168,95.138 123.558,95.101 C125.397,94.93 127.237,94.756 129.076,94.583 C132.727,94.241 136.375,93.9 140.026,93.557 C140.093,93.55 140.166,93.543 140.235,93.536 C138.628,92.16 137.024,90.784 135.417,89.409 C131.773,86.283 128.126,83.158 124.481,80.034 C120.548,76.665 116.619,73.298 112.691,69.929 C110.233,67.821 107.778,65.716 105.32,63.612 C105.183,63.493 104.963,63.21 104.785,63.154 C104.775,63.15 104.768,63.128 104.755,63.128 C104.694,63.119 104.486,63.238 104.436,63.258 C104.123,63.388 103.806,63.52 103.494,63.646 C102.387,64.099 101.268,64.522 100.14,64.918 C95.485,66.553 90.676,67.645 85.753,67.998 C80.859,68.348 75.905,67.822 71.136,66.723 C68.816,66.189 66.527,65.53 64.27,64.775 C63.058,64.367 61.853,63.935 60.659,63.482 C60.39,63.38 59.881,63.046 59.616,63.14 C59.425,63.208 59.197,63.499 59.048,63.63 C58.649,63.97 58.254,64.309 57.859,64.648 C56.597,65.726 55.338,66.808 54.08,67.888 C50.344,71.089 46.607,74.293 42.869,77.495 C38.995,80.815 35.12,84.135 31.248,87.457 C28.988,89.392 26.727,91.329 24.471,93.265 C24.364,93.357 24.255,93.447 24.147,93.54 C26.143,93.728 28.134,93.918 30.13,94.106 C33.31,94.408 36.495,94.709 39.676,95.008 C40.38,95.076 41.091,95.157 41.804,95.211 Z"></path>
                    <path d="M65.037,30.042 C65.833,30.057 66.641,30.526 67.381,30.784 C68.272,31.097 69.164,31.382 70.072,31.64 C71.797,32.133 73.553,32.524 75.329,32.807 C78.874,33.371 82.483,33.493 86.058,33.165 C89.725,32.829 93.346,32.022 96.829,30.832 C97.746,30.52 98.644,30.038 99.63,30.038 C100.323,30.038 101.026,30.038 101.721,30.038 C103.305,30.038 104.889,30.038 106.473,30.038 C105.663,29.066 104.855,28.097 104.047,27.126 C102.114,24.806 100.183,22.489 98.251,20.171 C95.915,17.367 93.579,14.565 91.241,11.759 C89.224,9.337 87.204,6.912 85.182,4.488 C84.516,3.688 83.847,2.886 83.179,2.084 C82.972,1.836 82.767,1.59 82.559,1.344 C82.487,1.257 82.342,0.991 82.23,0.949 C82.216,0.941 82.2,0.909 82.19,0.897 C81.38,1.868 80.571,2.837 79.765,3.807 C77.833,6.127 75.901,8.446 73.969,10.764 C71.631,13.566 69.293,16.369 66.958,19.173 C64.938,21.598 62.918,24.022 60.897,26.444 C60.232,27.247 59.564,28.048 58.893,28.85 C58.688,29.096 58.482,29.344 58.277,29.59 C58.208,29.676 57.967,29.876 57.947,29.987 C57.947,30.001 57.916,30.026 57.904,30.038 C59.985,30.038 62.067,30.038 64.15,30.038 C64.446,30.039 64.743,30.037 65.037,30.042 Z"></path>
                    <path d="M59.239,58.691 C59.677,58.715 60.033,58.842 60.439,59.005 C61.16,59.292 61.88,59.571 62.601,59.84 C63.982,60.356 65.372,60.841 66.78,61.281 C69.361,62.094 71.994,62.77 74.662,63.237 C79.554,64.092 84.544,64.193 89.457,63.432 C91.977,63.042 94.461,62.437 96.894,61.676 C98.188,61.269 99.471,60.818 100.737,60.33 C101.397,60.08 102.052,59.816 102.706,59.544 C103.299,59.298 103.888,58.977 104.507,58.789 C105.138,58.595 105.913,58.69 106.562,58.69 C107.909,58.69 109.263,58.69 110.614,58.69 C112.129,58.69 113.643,58.69 115.162,58.69 C115.741,58.69 116.321,58.69 116.904,58.69 C117.223,58.69 117.592,58.742 117.909,58.69 C117.954,58.683 118.002,58.69 118.047,58.69 C117.156,57.571 116.26,56.453 115.363,55.335 C113.343,52.807 111.319,50.28 109.297,47.751 C107.141,45.054 104.984,42.359 102.826,39.663 C101.528,38.04 100.227,36.417 98.931,34.793 C98.887,34.736 98.779,34.543 98.711,34.516 C98.597,34.475 98.224,34.681 98.113,34.719 C97.68,34.865 97.25,35.01 96.813,35.146 C96.033,35.389 95.25,35.614 94.465,35.821 C91.229,36.678 87.902,37.204 84.556,37.384 C81.299,37.557 78.03,37.378 74.808,36.871 C73.142,36.609 71.487,36.264 69.856,35.827 C69.122,35.631 68.392,35.418 67.664,35.192 C67.254,35.066 66.851,34.928 66.444,34.79 C66.294,34.739 65.811,34.469 65.666,34.523 C65.595,34.55 65.49,34.742 65.448,34.8 C65.259,35.036 65.069,35.271 64.88,35.507 C64.207,36.347 63.539,37.185 62.867,38.026 C60.824,40.575 58.784,43.129 56.742,45.678 C54.599,48.358 52.455,51.035 50.314,53.714 C49.049,55.296 47.782,56.879 46.516,58.462 C46.458,58.538 46.394,58.614 46.334,58.689 C50.122,58.689 53.909,58.689 57.697,58.689 C58.214,58.691 58.724,58.701 59.239,58.691 Z"></path>
                    <path d="M122.015,99.688 C114.305,102.824 106.264,105.081 98.039,106.384 C89.716,107.705 81.254,107.861 72.865,107.115 C64.535,106.374 56.273,104.511 48.343,101.878 C47.329,101.542 46.319,101.194 45.312,100.832 C44.802,100.65 44.296,100.464 43.79,100.273 C43.339,100.104 42.812,99.798 42.336,99.726 C42.135,99.695 42.194,99.675 42.052,99.833 C41.665,100.25 41.278,100.671 40.889,101.092 C39.177,102.951 37.461,104.812 35.746,106.672 C33.191,109.441 30.636,112.212 28.08,114.982 C25.166,118.147 22.249,121.307 19.332,124.47 C16.53,127.51 13.726,130.55 10.924,133.591 C8.734,135.965 6.546,138.34 4.356,140.713 C3.251,141.908 2.149,143.106 1.048,144.299 C1,144.354 0.947,144.405 0.899,144.461 C1.74,144.461 2.579,144.461 3.42,144.461 C5.649,144.461 7.883,144.461 10.112,144.461 C13.327,144.461 16.542,144.461 19.757,144.461 C23.545,144.461 27.336,144.461 31.125,144.461 C35.073,144.461 39.022,144.461 42.972,144.461 C46.685,144.461 50.396,144.461 54.112,144.461 C57.141,144.461 60.175,144.461 63.204,144.461 C65.183,144.461 67.16,144.461 69.139,144.461 C69.783,144.461 70.426,144.461 71.068,144.461 C73.857,144.461 76.645,144.461 79.435,144.461 C83.108,144.461 86.788,144.461 90.462,144.461 C91.619,144.461 92.775,144.461 93.93,144.461 C95.263,144.461 96.598,144.461 97.933,144.461 C100.516,144.461 103.095,144.461 105.68,144.461 C109.137,144.461 112.589,144.461 116.043,144.461 C119.915,144.461 123.786,144.461 127.658,144.461 C131.588,144.461 135.517,144.461 139.453,144.461 C142.99,144.461 146.531,144.461 150.072,144.461 C152.828,144.461 155.583,144.461 158.336,144.461 C159.895,144.461 161.454,144.461 163.017,144.461 C163.218,144.461 163.423,144.461 163.627,144.461 C163.253,144.059 162.882,143.661 162.511,143.26 C161.506,142.177 160.501,141.094 159.491,140.013 C157.998,138.404 156.502,136.796 155.011,135.189 C153.188,133.226 151.364,131.263 149.539,129.301 C147.55,127.162 145.563,125.021 143.573,122.884 C141.558,120.712 139.542,118.543 137.522,116.372 C135.642,114.35 133.762,112.328 131.88,110.304 C130.304,108.603 128.722,106.9 127.14,105.198 C125.994,103.966 124.852,102.737 123.708,101.507 C123.167,100.927 122.626,100.343 122.089,99.763 C122.065,99.74 122.04,99.714 122.015,99.688 Z"></path>
                </g>
            </g>
        </g>
    </g>
</svg>